<?xml version="1.0" encoding="UTF-8"?> <svg xmlns="http://www.w3.org/2000/svg" id="Capa_1" data-name="Capa 1" viewBox="0 0 1128.0044 359.954"><defs><style>.cls-1{fill:#000000;}</style></defs><g id="logo_color" data-name="logo color"><g id="logo_color-2" data-name="logo color-2"><path class="cls-1" d="M1138.1547,622.7641h-.65l-10.66-30.26h-11.15l17,44.33-1.14,3c-1.3,3.27-3.34,5-6.91,5h-4.4v9.48h5.29c8,0,12.53-3.84,15.37-11.45l18.88-50.38h-11.31Zm81-24.7h-.66a15.32,15.32,0,0,0-13.09-6.62,18.21,18.21,0,0,0-14.3,6.21c-3.66,4.09-5.53,9.49-5.53,16.2s1.87,12.1,5.61,16.19a18.93,18.93,0,0,0,14.48,6.13,15,15,0,0,0,12.85-6.54h.66v5.56c0,7.45-3.83,11.45-11.39,11.45-5.62,0-9.28-2.37-10-6.29h-9.76a15.26,15.26,0,0,0,5.77,10.71c3.5,2.86,8.14,4.34,14,4.34,14,0,21.8-8.1,21.8-20.21v-42.69h-10.49Zm-11.31,28.55c-6.92,0-11.47-4.91-11.47-12.76,0-7.53,4.55-12.76,11.39-12.76s11.55,4.91,11.55,12.76c-.05,7.44-4.61,12.76-11.52,12.76Zm-476.59-268a85.5,85.5,0,0,0-83.44,0,81.7,81.7,0,0,0-41.24,71.11v140.67h31.52v-76.25a84.25,84.25,0,0,0,93.16,6.53,81.1,81.1,0,0,0,30.11-29.81,82.86,82.86,0,0,0,0-82.44,81.1,81.1,0,0,0-30.16-29.81Zm-5,107.9c-9.72,10.1-21.8,15.07-36.39,15.07s-26.81-5-36.69-15.07q-15.06-15.13-15.06-36.79a50.71,50.71,0,0,1,14.9-36.8c9.88-10.09,22.27-15.06,36.85-15.06s26.82,5,36.55,14.91c9.56,10.09,14.43,22.35,14.43,36.95q-.07,21.66-14.66,36.79Zm368.62,124.94a15.37,15.37,0,0,0-13,6.62h-.57v-23.89h-10.57v61.34h10.37v-5.48h.57a14.7752,14.7752,0,0,0,12.85,6.54c6,0,10.9-2,14.57-6.13s5.61-9.57,5.61-16.19-1.87-12.19-5.53-16.44A18,18,0,0,0,1094.8747,591.4542Zm-2.44,35.58a10.45,10.45,0,0,1-8.3-3.68,14.11,14.11,0,0,1-3.09-9.25c0-7.93,4.72-13,11.47-13a10.41,10.41,0,0,1,8.22,3.68,13.17,13.17,0,0,1,3.25,9.32c0,7.76-4.64,12.92-11.55,12.92Zm-547.67-268.42a85.5,85.5,0,0,0-83.44,0,81.74,81.74,0,0,0-41.22,71.11,79.7609,79.7609,0,0,0,11.14,41.14,81.1,81.1,0,0,0,30.11,29.81,84.42,84.42,0,0,0,83.44,0,81.1,81.1,0,0,0,30.11-29.81,82.86,82.86,0,0,0,0-82.44A81.1,81.1,0,0,0,544.7647,358.6142Zm-5,107.9c-9.73,10.1-21.8,15.07-36.39,15.07s-26.82-5-36.7-15.07q-15.06-15.13-15.06-36.79a50.71,50.71,0,0,1,14.9-36.8c9.89-10.09,22.27-15.06,36.86-15.06s26.82,5,36.54,14.91c9.57,10.09,14.43,22.35,14.43,36.95q-.02,21.66-14.6,36.79Zm607.18-35.52a83.2458,83.2458,0,0,0-155.1806-42.5189q-.11.1891-.2194.3788a83.07,83.07,0,0,0-11.18,42.14v81.1h31.67v-81.1h0q0-22.11,15-37.55c10-10.3,22.37-15.37,37-15.37s27,5.07,36.71,15.21c9.62,10.3,14.5,22.81,14.5,37.71h0v81.1h31.68Zm-215.31-62.26a86.409,86.409,0,0,0-56.73-21.39,78.9989,78.9989,0,0,0-41.6,11.41,81,81,0,0,0-29.63,30.57,85.72,85.72,0,0,0-10.71,42,82.102,82.102,0,0,0,11,41.82,80.09,80.09,0,0,0,30.14,30.24,84.36,84.36,0,0,0,117.39-35.48l-37.81-.32c-10.09,10.93-23,16.32-38.77,16.32-13.08,0-23.95-3.81-32.78-11.57-9-7.6-14-17.42-15.28-29.62h130.46a99.782,99.782,0,0,0,.95-14.58C957.4747,403.9042,947.1047,382.3541,931.6347,368.7342Zm-104.79,48a52.479,52.479,0,0,1,17.65-27.88c8.67-7.13,19.22-10.78,31.51-10.78a47,47,0,0,1,30.57,10.93,51.71,51.71,0,0,1,17.81,27.73Zm664.26,157.72c-3.83,0-6.51,2.45-6.51,6.13,0,3.85,2.68,6.22,6.51,6.22s6.51-2.37,6.51-6.22C1497.5747,576.8841,1494.8847,574.4542,1491.1047,574.4542Zm-34,48.4h-.66l-10.17-30.35h-11.06l15.62,43h12l15.7-43h-11.31Zm28.63,12.67h10.58v-43h-10.58Zm-55.69-13.07v-48.27h-10.57v49.27c0,7.6,4.23,12.1,11.71,12.1h4v-9.32h-1.71C1431.2647,626.2042,1430.0446,624.8141,1430.0446,622.4542Zm-31.56-24.38h-.57a15.28,15.28,0,0,0-13-6.62,18.05,18.05,0,0,0-14.32,6.38c-3.66,4.25-5.53,9.73-5.53,16.44s1.87,12,5.62,16.19a18.85,18.85,0,0,0,14.56,6.13,14.63,14.63,0,0,0,9-2.61,17.4832,17.4832,0,0,0,3.9-3.93h.57v5.48h10.39v-43h-10.58Zm-2.93,25.28a10.43,10.43,0,0,1-8.3,3.68c-6.83,0-11.47-5.16-11.47-12.93,0-7.6,4.64-13,11.39-13s11.55,5.07,11.55,13a13.74,13.74,0,0,1-3.17,9.24Zm-144.56-.9v-48.27h-10.58v49.27c0,7.6,4.23,12.1,11.71,12.1h4v-9.32h-1.71c-2.2-.03-3.42-1.42-3.42-3.78Zm286.11-234a83.4651,83.4651,0,0,0-143.33,0,80.4318,80.4318,0,0,0-11.14,41.3c-1.1,44.4,38.43,82.91,83,82a62.1994,62.1994,0,0,0,30.89-7.92c9.41-5.12,16.16-11.8,20.08-19.72v25.15h31.5v-79.55A80.29,80.29,0,0,0,1537.1047,388.4542Zm-34.81,78.1c-9.73,10.09-21.8,15.06-36.39,15.06s-26.82-5-36.7-15.06q-15.06-15.15-15.06-36.8a50.71,50.71,0,0,1,14.9-36.8c9.88-10.09,22.27-15.06,36.86-15.06s26.82,5,36.54,14.91,14.43,22.35,14.43,36.95q.01,21.62-14.57,36.76Zm35.21,131.55h-.57a15.29,15.29,0,0,0-13-6.62,18.05,18.05,0,0,0-14.32,6.38c-3.66,4.25-5.53,9.73-5.53,16.44s1.87,12,5.62,16.19a18.85,18.85,0,0,0,14.56,6.13,14.63,14.63,0,0,0,8.95-2.61,17.4811,17.4811,0,0,0,3.9-3.93h.57v5.48h10.42v-43h-10.58Zm-2.93,25.28a10.43,10.43,0,0,1-8.3,3.68c-6.83,0-11.47-5.16-11.47-12.93,0-7.6,4.64-13,11.39-13s11.55,5.07,11.55,13a13.74,13.74,0,0,1-3.16,9.21Zm-251.53-31.93c-13.51,0-22.78,9.81-22.78,22.57a22.2506,22.2506,0,0,0,6.35,16.2c4.31,4.25,9.76,6.37,16.43,6.37,13.26,0,22.78-10,22.78-22.57C1306.1047,601.5041,1296.2247,591.2842,1283.0446,591.4542Zm8.62,31.9a11.62,11.62,0,0,1-8.7,3.6,11.46,11.46,0,0,1-8.63-3.6,13.52,13.52,0,0,1-3.33-9.33,13.15,13.15,0,0,1,3.33-9.24,11.42,11.42,0,0,1,8.71-3.68,11.23,11.23,0,0,1,8.62,3.68,12.82,12.82,0,0,1,3.42,9.24,13.17,13.17,0,0,1-3.42,9.32Zm-63.56-152.44-47.43-121h-33.25l64.92,162.21h31.52l65.24-162.24h-33.3Zm110.83,120.54a15.37,15.37,0,0,0-13,6.62h-.57v-23.89h-10.57v61.34h10.41v-5.48h.57a14.7752,14.7752,0,0,0,12.85,6.54c6,0,10.91-2,14.57-6.13s5.61-9.57,5.61-16.19-1.87-12.19-5.53-16.44A18,18,0,0,0,1338.9347,591.4542Zm-2.44,35.58a10.43,10.43,0,0,1-8.3-3.68,14.11,14.11,0,0,1-3.09-9.25c0-7.93,4.72-13,11.47-13a10.3993,10.3993,0,0,1,8.22,3.68,13.1692,13.1692,0,0,1,3.25,9.32c0,7.76-4.64,12.92-11.55,12.92Zm-9-114.93h31.68v-162.22h-31.68Zm16-216.65a16.05,16.05,0,1,0,15.6962,16.3962q.0043-.1981.0038-.3962a15.83,15.83,0,0,0-15.6587-16l-.0513,0Z" transform="translate(-420.1032 -295.4503)"></path></g></g></svg> 