<svg height="800px" width="800px" version="1.1" id="Layer_1" xmlns="http://www.w3.org/2000/svg" xmlns:xlink="http://www.w3.org/1999/xlink" 
	 viewBox="0 0 512 512" xml:space="preserve">
<g>
	<g>
		<path d="M300.522,289.391V44.522C300.522,19.972,280.55,0,256,0c-24.549,0-44.522,19.972-44.522,44.522v244.87
			c-6.147,0-11.13,4.983-11.13,11.13v44.522c0,6.147,4.983,11.13,11.13,11.13s11.13-4.983,11.13-11.13v-33.391h66.783v22.261H256
			c-6.147,0-11.13,4.983-11.13,11.13c0,6.147,4.983,11.13,11.13,11.13h33.391v89.044h-66.783v-33.391
			c0-6.147-4.983-11.13-11.13-11.13s-11.13,4.983-11.13,11.13v44.522c0,6.147,4.983,11.13,11.13,11.13
			C211.478,492.028,231.451,512,256,512c24.549,0,44.522-19.972,44.522-44.522c6.147,0,11.13-4.983,11.13-11.13V300.522
			C311.652,294.374,306.669,289.391,300.522,289.391z M278.261,289.391h-44.522V44.522c0-12.275,9.986-22.261,22.261-22.261
			c12.275,0,22.261,9.986,22.261,22.261V289.391z M256,489.739c-12.275,0-22.261-9.986-22.261-22.261h44.522
			C278.261,479.753,268.275,489.739,256,489.739z"/>
	</g>
</g>
<g>
	<g>
		<path d="M222.386,376.264c-0.134-0.712-0.356-1.414-0.634-2.081c-0.278-0.679-0.623-1.325-1.024-1.926
			c-0.401-0.612-0.868-1.18-1.38-1.692c-0.512-0.512-1.08-0.979-1.692-1.38c-0.601-0.401-1.247-0.746-1.914-1.024
			c-0.679-0.278-1.38-0.49-2.093-0.634c-1.425-0.289-2.905-0.289-4.341,0c-0.712,0.145-1.414,0.356-2.081,0.634
			c-0.679,0.278-1.325,0.623-1.926,1.024c-0.612,0.401-1.18,0.868-1.692,1.38c-0.512,0.512-0.979,1.08-1.38,1.692
			c-0.401,0.601-0.746,1.247-1.024,1.926c-0.278,0.668-0.501,1.369-0.634,2.081c-0.145,0.712-0.223,1.447-0.223,2.17
			c0,0.723,0.078,1.458,0.223,2.17c0.134,0.712,0.356,1.414,0.634,2.081c0.278,0.679,0.623,1.325,1.024,1.926
			c0.401,0.612,0.868,1.18,1.38,1.692c0.512,0.512,1.08,0.979,1.692,1.38c0.601,0.401,1.247,0.746,1.926,1.024
			c0.668,0.278,1.369,0.501,2.081,0.634c0.712,0.145,1.447,0.223,2.17,0.223s1.458-0.078,2.17-0.223
			c0.712-0.134,1.414-0.356,2.093-0.634c0.668-0.278,1.313-0.623,1.914-1.024c0.612-0.401,1.18-0.868,1.692-1.38
			c0.512-0.512,0.979-1.08,1.38-1.692c0.401-0.601,0.746-1.247,1.024-1.926c0.278-0.668,0.501-1.369,0.634-2.081
			c0.145-0.712,0.223-1.447,0.223-2.17C222.609,377.711,222.531,376.977,222.386,376.264z"/>
	</g>
</g>
<g>
	<g>
		<path d="M399.52,50.674c-2.749-5.497-9.434-7.727-14.934-4.978l-44.522,22.261c-5.498,2.749-7.727,9.435-4.978,14.934
			c1.951,3.901,5.881,6.155,9.965,6.155c1.672,0,3.371-0.378,4.969-1.178l44.522-22.261C400.041,62.858,402.27,56.172,399.52,50.674
			z"/>
	</g>
</g>
<g>
	<g>
		<path d="M394.543,201.523l-44.522-22.261c-5.498-2.749-12.185-0.521-14.934,4.978s-0.521,12.185,4.978,14.934l44.522,22.261
			c1.598,0.799,3.296,1.178,4.969,1.178c4.083,0,8.014-2.255,9.964-6.155C402.27,210.957,400.041,204.271,394.543,201.523z"/>
	</g>
</g>
<g>
	<g>
		<path d="M171.934,67.957l-44.522-22.261c-5.498-2.749-12.184-0.52-14.934,4.978c-2.748,5.5-0.52,12.186,4.979,14.934
			l44.522,22.261c1.598,0.799,3.296,1.178,4.969,1.178c4.083,0,8.014-2.255,9.964-6.155
			C179.661,77.392,177.433,70.706,171.934,67.957z"/>
	</g>
</g>
<g>
	<g>
		<path d="M176.912,184.24c-2.748-5.498-9.433-7.728-14.933-4.978l-44.522,22.261c-5.498,2.749-7.727,9.435-4.978,14.934
			c1.95,3.9,5.881,6.155,9.964,6.155c1.672,0,3.371-0.378,4.969-1.178l44.522-22.261
			C177.433,196.424,179.661,189.738,176.912,184.24z"/>
	</g>
</g>
<g>
	<g>
		<path d="M389.565,122.805h-44.522c-6.147,0-11.13,4.983-11.13,11.13s4.983,11.13,11.13,11.13h44.522
			c6.147,0,11.13-4.983,11.13-11.13S395.713,122.805,389.565,122.805z"/>
	</g>
</g>
<g>
	<g>
		<path d="M166.957,122.805h-44.522c-6.147,0-11.13,4.983-11.13,11.13s4.983,11.13,11.13,11.13h44.522
			c6.147,0,11.13-4.983,11.13-11.13S173.104,122.805,166.957,122.805z"/>
	</g>
</g>
</svg>